{"title":"The Conspiracy Files: 9/11 Ten Years On 832x468 BBC 911[aularon]","uid":6640169,"size":665081138,"categoryP":"video","categoryS":"tv_shows","magnet":"?xt=urn:btih:681c94d52e22552885f2b97355acba0d93501f6c&amp;dn=The+Conspiracy+Files%3A+9%2F11+Ten+Years+On+832x468+BBC+911%5Baularon%5D&amp;tr=udp%3A%2F%2Ftracker.openbittorrent.com%3A80&amp;tr=udp%3A%2F%2Fopen.demonii.com%3A1337&amp;tr=udp%3A%2F%2Ftracker.coppersurfer.tk%3A6969&amp;tr=udp%3A%2F%2Fexodus.desync.com%3A6969","seeders":3,"leechers":0,"uploader":"aularon","files":-1,"time":1314712722,"description":"The Conspiracy Files: 9/11 Ten Years On 832x468 BBC 911 x264 aac mp4 w/subtitles [aularon]\n\n\n- - -\nSynopsis\n- - -\nA decade after the attacks that killed nearly 3,000 people in New York, Washington and Pennsylvania, the Conspiracy Files looks at why some people still question what really happened on 9/11. Conspiracy theories continue to evolve and now question every aspect of the official account. Why, they ask, was the hole in the Pentagon so small? Why did the World Trade Centre buildings collapse as if being demolished by explosives? Why did one skyscraper fall when it was never hit by a plane? And why was the world's greatest military power so unprepared and so slow to react when warnings had been received?\n\nThe death of Osama Bin Laden might have been expected to put an end to the conspiracy theories, but the failure to release any pictures of Bin Laden's death and the hasty disposal of his body in the Arabian Sea, has instead given these theories a new burst of life.\n\nFeaturing key witnesses, CIA and FBI interviewees and leading sceptics, the programme analyses the evidence and looks at what makes conspiracy theories so persistent and so powerful.\n\n- - -\nURL\n- - -    &lt;a href=&quot;\nhttp://www.bbc.co.uk/programmes/b0148yz5&quot; rel=&quot;nofollow&quot; target=&quot;_NEW&quot;&gt;\nhttp://www.bbc.co.uk/programmes/b0148yz5&lt;/a&gt;\n\n\n- - -\nTechnical Details\n- - -\nGeneral\nComplete name                    : BBC.The.Conspiracy.Files.9.11.Ten.Years.On/The_Conspiracy_Files_-_9_11_Ten_Years_On_b0148yz5_default.mp4\nFormat                           : MPEG-4\nFormat profile                   : Base Media\nCodec ID                         : isom\nFile size                        : 634 MiB\nDuration                         : 59mn 1s\nOverall bit rate                 : 1 502 Kbps\nMovie name                       : The Conspiracy Files: 9/11 Ten Years On\nAlbum                            : The Conspiracy Files\nPerformer                        : The Conspiracy Files\nGenre                            : Factual,Crime &amp; Justice\nRecorded date                    : 2011-08-29T21:00:00+01:00\nTagged date                      : UTC 2011-08-30 11:36:09\nWriting application              : Lavf53.10.0\nCover                            : Yes\nComment                          : Recorded using get_iplayer, by Aularon.\nrtng                             : 4\nstik                             : 1\ndesc                             : A decade after the attacks on New York, Washington and Pennsylvania, the Conspiracy Files looks at why some people still question what really happened on 9/11.\ntvnn                             : BBC Two\ntvsh                             : The Conspiracy Files\ntven                             : b0148yz5\ncatg                             : Factual,Crime &amp; Justice\n\nVideo\nID                               : 1\nFormat                           : AVC\nFormat/Info                      : Advanced Video Codec\nFormat profile                   : &lt;a class=&quot;__cf_email__&quot; href=&quot;/cdn-cgi/l/email-protection&quot; data-cfemail=&quot;5a173b33341a1669746a&quot;&gt;[email&amp;#160;protected]&lt;/a&gt;&lt;script cf-hash='f9e31' type=&quot;text/javascript&quot;&gt;\n/* &lt;![CDATA[ */!function(){try{var t=&quot;currentScript&quot;in document?document.currentScript:function(){for(var t=document.getElementsByTagName(&quot;script&quot;),e=t.length;e--;)if(t[e].getAttribute(&quot;cf-hash&quot;))return t[e]}();if(t&amp;&amp;t.previousSibling){var e,r,n,i,c=t.previousSibling,a=c.getAttribute(&quot;data-cfemail&quot;);if(a){for(e=&quot;&quot;,r=parseInt(a.substr(0,2),16),n=2;a.length-n;n+=2)i=parseInt(a.substr(n,2),16)^r,e+=String.fromCharCode(i);e=document.createTextNode(e),c.parentNode.replaceChild(e,c)}}}catch(u){}}();/* ]]&gt; */&lt;/script&gt;\nFormat settings, CABAC           : Yes\nFormat settings, ReFrames        : 4 frames\nCodec ID                         : avc1\nCodec ID/Info                    : Advanced Video Coding\nDuration                         : 59mn 1s\nBit rate mode                    : Constant\nBit rate                         : 1 404 Kbps\nWidth                            : 832 pixels\nHeight                           : 468 pixels\nDisplay aspect ratio             : 16:9\nFrame rate mode                  : Constant\nFrame rate                       : 25.000 fps\nStandard                         : PAL\nColor space                      : YUV\nChroma subsampling               : 4:2:0\nBit depth                        : 8 bits\nScan type                        : Progressive\nBits/(Pixel*Frame)               : 0.144\nStream size                      : 592 MiB (93%)\n\nAudio\nID                               : 2\nFormat                           : AAC\nFormat/Info                      : Advanced Audio Codec\nFormat profile                   : HE-AAC / LC\nCodec ID                         : 40\nDuration                         : 59mn 1s\nBit rate mode                    : Constant\nBit rate                         : 96.0 Kbps\nChannel(s)                       : 2 channels\nChannel positions                : Front: L R\nSampling rate                    : 48.0 KHz / 24.0 KHz\nCompression mode                 : Lossy\nStream size                      : 40.0 MiB (6%)\n\n\n                  ______                                     \n                 (____  \\                                    \n                  ____)  )_____  ____ _____ _   _  ___ _____ \n                 |  __  (| ___ |/ ___|____ | | | |/___) ___ |\n            _ _ _| |__)  ) ____( (___/ ___ | |_| |___ | ____|\n           (_|_|_)______/|_____)\\____)_____|____/(___/|_____)\n                                                              \n                   ______ _                 _             \n                  / _____) |               (_)            \n                 ( (____ | |__  _____  ____ _ ____   ____ \n                  \\____ \\|  _ \\(____ |/ ___) |  _ \\ / _  |\n                  _____) ) | | / ___ | |   | | | | ( (_| |\n                 (______/|_| |_\\_____|_|   |_|_| |_|\\___ |\n                                                   (_____|\n                                  _      \n                                 (_)     \n                                  _  ___ \n                                 | |/___)\n                                 | |___ |\n                                 |_(___/ \n\n                    _______             _               \n                   (_______)           (_)              \n                    _       _____  ____ _ ____   ____   \n                   | |     (____ |/ ___) |  _ \\ / _  |  \n                   | |_____/ ___ | |   | | | | ( (_| |_ \n                    \\______)_____|_|   |_|_| |_|\\___ (_)\n                                               (_____|  \n\n                                    ;)","torrent":{"xt":"urn:btih:681c94d52e22552885f2b97355acba0d93501f6c","amp;dn":"The+Conspiracy+Files%3A+9%2F11+Ten+Years+On+832x468+BBC+911%5Baularon%5D","amp;tr":["udp%3A%2F%2Ftracker.openbittorrent.com%3A80","udp%3A%2F%2Fopen.demonii.com%3A1337","udp%3A%2F%2Ftracker.coppersurfer.tk%3A6969","udp%3A%2F%2Fexodus.desync.com%3A6969"],"infoHash":"681c94d52e22552885f2b97355acba0d93501f6c","infoHashBuffer":{"type":"Buffer","data":[104,28,148,213,46,34,85,40,133,242,185,115,85,172,186,13,147,80,31,108]},"announce":[],"urlList":[]}}